<svg width="20" height="20" viewBox="0 0 20 20" fill="none" xmlns="http://www.w3.org/2000/svg">
<path d="M10 20C4.4898 20 0 15.5102 0 10C0 4.4898 4.4898 0 10 0C15.5102 0 20 4.4898 20 10C20 15.5102 15.5102 20 10 20ZM10 1.87755C5.5102 1.87755 1.87755 5.5102 1.87755 10C1.87755 14.4898 5.5102 18.1224 10 18.1224C14.4898 18.1224 18.1224 14.4898 18.1224 10C18.1224 5.5102 14.4898 1.87755 10 1.87755Z" fill="#A91E25"/>
<path d="M9.25 14V6H10.75V14H9.25ZM6 10.7306V9.28767H14V10.7306H6Z" fill="#A91E25"/>
</svg>
