<svg width="34" height="34" viewBox="0 0 34 34" fill="none" xmlns="http://www.w3.org/2000/svg">
<g clip-path="url(#clip0_10_326)">
<path d="M22.6666 14.1667C22.6666 15.6696 22.0696 17.1109 21.0069 18.1736C19.9442 19.2363 18.5029 19.8333 17 19.8333C15.4971 19.8333 14.0557 19.2363 12.993 18.1736C11.9303 17.1109 11.3333 15.6696 11.3333 14.1667C11.3333 12.6638 11.9303 11.2224 12.993 10.1597C14.0557 9.09702 15.4971 8.5 17 8.5C18.5029 8.5 19.9442 9.09702 21.0069 10.1597C22.0696 11.2224 22.6666 12.6638 22.6666 14.1667Z" fill="white"/>
<path fill-rule="evenodd" clip-rule="evenodd" d="M16.422 31.1553C8.86619 30.8521 2.83331 24.6301 2.83331 16.9999C2.83331 9.17567 9.17573 2.83325 17 2.83325C24.8242 2.83325 31.1666 9.17567 31.1666 16.9999C31.1666 24.8242 24.8242 31.1666 17 31.1666H16.8059C16.6775 31.1666 16.5495 31.1628 16.422 31.1553ZM7.90923 25.9391C7.80331 25.6349 7.76725 25.3108 7.80375 24.9908C7.84024 24.6707 7.94833 24.363 8.12001 24.0905C8.29169 23.818 8.52255 23.5876 8.79544 23.4165C9.06833 23.2454 9.37626 23.138 9.69635 23.1022C15.2185 22.4909 18.8154 22.5462 24.3107 23.115C24.6312 23.1483 24.9399 23.2544 25.2132 23.4251C25.4866 23.5958 25.7173 23.8267 25.888 24.1C26.0586 24.3734 26.1646 24.6821 26.1979 25.0027C26.2312 25.3232 26.1909 25.6471 26.0801 25.9497C28.4354 23.5669 29.7544 20.3503 29.75 16.9999C29.75 9.95838 24.0415 4.24992 17 4.24992C9.95844 4.24992 4.24998 9.95838 4.24998 16.9999C4.24998 20.4821 5.6461 23.6384 7.90923 25.9391Z" fill="white"/>
</g>
<defs>
<clipPath id="clip0_10_326">
<rect width="34" height="34" fill="white"/>
</clipPath>
</defs>
</svg>
