<svg width="83" height="83" viewBox="0 0 83 83" fill="none" xmlns="http://www.w3.org/2000/svg">
<circle cx="41.5" cy="41.5" r="40.5" fill="#FDFDFD" stroke="#033162" stroke-width="2"/>
<path d="M32.7707 58C32.3013 58 31.8364 57.8571 31.4321 57.5742C30.6591 57.035 30.2742 56.1112 30.4282 55.1669L31.8927 46.1945L25.697 39.8536C25.05 39.1907 24.8338 38.2301 25.1314 37.3432C25.4216 36.4843 26.1472 35.8669 27.0268 35.7329L35.5412 34.4334L39.3585 26.3746C39.7568 25.5289 40.5771 25 41.4997 25C42.4207 25 43.2425 25.5274 43.6408 26.376L47.4581 34.4304L55.9726 35.7298C56.8521 35.8639 57.5777 36.4812 57.868 37.3401C58.1671 38.2256 57.9494 39.1876 57.3023 39.8506L51.1067 46.1945L52.5712 55.1668C52.7252 56.1112 52.3416 57.032 51.5687 57.5742C50.8313 58.0898 49.8865 58.1399 49.0988 57.7068L41.5025 53.5123L33.9046 57.7068C33.5493 57.9042 33.1613 58 32.7733 58L32.7707 58ZM27.3969 38.2091L34.0084 44.9773C34.269 45.2454 34.3875 45.6196 34.3282 45.988L32.7675 55.5453L40.3699 51.4391C41.0777 51.0472 41.9218 51.0472 42.6295 51.4391L50.2467 55.6437L48.6712 45.9876C48.6105 45.6193 48.7289 45.245 48.991 44.9769L55.6025 38.2087V38.054L46.4751 36.6662C46.0857 36.6072 45.751 36.3583 45.5836 36.0032L41.4968 27.3771L37.4187 36.0032C37.2499 36.3583 36.9167 36.6073 36.5273 36.6662L27.3908 38.0599L27.3997 38.2087L27.3969 38.2091Z" fill="#033162"/>
</svg>
